name D:\school\WTK\thesis\model\3dpredictsim\Results\windlass\Pog_s1_tmt_bCst_d00_k500_WL40_ig24.mot
datacolumns 128
datarows 4
range 0.00000000 0.03295671
endheader
time	pelvis_tilt	pelvis_list	pelvis_rotation	pelvis_tx	pelvis_ty	pelvis_tz	hip_flexion_l	hip_adduction_l	hip_rotation_l	hip_flexion_r	hip_adduction_r	hip_rotation_r	knee_angle_l	knee_angle_r	ankle_angle_l	ankle_angle_r	subtalar_angle_l	subtalar_angle_r	tmt_angle_l	tmt_angle_r	mtp_angle_l	mtp_angle_r	lumbar_extension	lumbar_bending	lumbar_rotation	arm_flex_l	arm_add_l	arm_rot_l	arm_flex_r	arm_add_r	arm_rot_r	elbow_flex_l	elbow_flex_r	pro_sup_l	pro_sup_r	glut_med1_l/activation	glut_med2_l/activation	glut_med3_l/activation	glut_min1_l/activation	glut_min2_l/activation	glut_min3_l/activation	semimem_l/activation	semiten_l/activation	bifemlh_l/activation	bifemsh_l/activation	sar_l/activation	add_long_l/activation	add_brev_l/activation	add_mag1_l/activation	add_mag2_l/activation	add_mag3_l/activation	tfl_l/activation	pect_l/activation	grac_l/activation	glut_max1_l/activation	glut_max2_l/activation	glut_max3_l/activation	iliacus_l/activation	psoas_l/activation	quad_fem_l/activation	gem_l/activation	peri_l/activation	rect_fem_l/activation	vas_med_l/activation	vas_int_l/activation	vas_lat_l/activation	med_gas_l/activation	lat_gas_l/activation	soleus_l/activation	tib_post_l/activation	flex_dig_l/activation	flex_hal_l/activation	tib_ant_l/activation	per_brev_l/activation	per_long_l/activation	per_tert_l/activation	ext_dig_l/activation	ext_hal_l/activation	ercspn_l/activation	intobl_l/activation	extobl_l/activation	glut_med1_r/activation	glut_med2_r/activation	glut_med3_r/activation	glut_min1_r/activation	glut_min2_r/activation	glut_min3_r/activation	semimem_r/activation	semiten_r/activation	bifemlh_r/activation	bifemsh_r/activation	sar_r/activation	add_long_r/activation	add_brev_r/activation	add_mag1_r/activation	add_mag2_r/activation	add_mag3_r/activation	tfl_r/activation	pect_r/activation	grac_r/activation	glut_max1_r/activation	glut_max2_r/activation	glut_max3_r/activation	iliacus_r/activation	psoas_r/activation	quad_fem_r/activation	gem_r/activation	peri_r/activation	rect_fem_r/activation	vas_med_r/activation	vas_int_r/activation	vas_lat_r/activation	med_gas_r/activation	lat_gas_r/activation	soleus_r/activation	tib_post_r/activation	flex_dig_r/activation	flex_hal_r/activation	tib_ant_r/activation	per_brev_r/activation	per_long_r/activation	per_tert_r/activation	ext_dig_r/activation	ext_hal_r/activation	ercspn_r/activation	intobl_r/activation	extobl_r/activation	
          0.00000000	         -2.92839806	         -1.44283320	          5.19192888	          0.00000000	          0.86337304	         -0.00179557	        -16.84682131	         -0.77338144	          7.43353031	         30.53914715	          2.48526192	         -1.78008623	        -10.12182652	        -14.75166113	          0.72509686	          7.18552843	         12.40276297	          0.49684448	        -12.35842735	          0.12480134	         29.84861100	         -0.10593532	         -1.30959895	          0.05448194	         -1.94299702	          5.11696242	        -13.47237934	         16.03394497	         -9.47401761	        -13.46010837	          6.74402411	         36.13874946	         17.40405496	         86.51662706	         86.51662706	          0.35114214	          0.08038235	          0.05000019	          0.28157530	          0.16522913	          0.07877551	          0.05000318	          0.05000056	          0.05000035	          0.05453402	          0.06998610	          0.10887773	          0.05002358	          0.05000209	          0.05000359	          0.05000146	          0.21117359	          0.09602708	          0.05000149	          0.05000310	          0.05000206	          0.05000152	          0.28897401	          0.43675718	          0.05000022	          0.05000053	          0.05000015	          0.19192442	          0.12239666	          0.11469121	          0.09435563	          0.23351375	          0.30098927	          0.19659182	          0.16844752	          0.13663714	          0.20902875	          0.05000036	          0.12832566	          0.17033496	          0.05003770	          0.06716658	          0.05000275	          0.05000011	          0.05000009	          0.05000193	          0.05915466	          0.05915397	          0.05000916	          0.05621780	          0.05912634	          0.05915331	          0.05915505	          0.05915506	          0.11300290	          0.05007270	          0.05000201	          0.10502531	          0.18276638	          0.12372768	          0.14892991	          0.09509459	          0.05000415	          0.05009744	          0.10184890	          0.05915751	          0.08703799	          0.09975435	          0.05000039	          0.05000033	          0.27560231	          0.06163155	          0.09622714	          0.05000024	          0.09652214	          0.11230836	          0.08029419	          0.05915463	          0.05915463	          0.05915464	          0.05008109	          0.05003421	          0.05002612	          0.49123431	          0.31742437	          0.18715876	          0.20439577	          0.52744164	          0.23079910	          0.05000049	          0.09242481	          0.09795883	
          0.01098557	         -2.92071771	         -1.49054378	          5.39291893	          0.01695899	          0.86258337	         -0.00159688	        -16.73486379	         -1.01364057	          7.19126760	         29.79670654	          2.87005722	         -1.58190689	        -11.90039626	        -14.63547527	         -0.29127043	          6.56955632	         13.31419293	          0.06495495	        -13.24646614	          0.10424464	         30.59789584	         -0.09895911	         -1.08780263	          0.26918813	         -2.02033523	          4.80616563	        -13.50170165	         16.29803052	        -10.51486482	        -13.45018344	          6.54132014	         37.14238830	         17.29654967	         86.51662706	         86.51662706	          0.29680031	          0.06794266	          0.05000058	          0.23799964	          0.13965882	          0.06658459	          0.05000740	          0.05000043	          0.05000068	          0.05000031	          0.05915566	          0.14480352	          0.23635153	          0.24580572	          0.07192102	          0.18392745	          0.17849301	          0.08116959	          0.05000106	          0.05000538	          0.05000364	          0.05000426	          0.24425310	          0.36916572	          0.05000043	          0.05001345	          0.05915453	          0.16222266	          0.11589501	          0.11589533	          0.11589476	          0.19737569	          0.25440887	          0.16616771	          0.14237915	          0.11549211	          0.17668028	          0.09730975	          0.10846654	          0.14397452	          0.05000046	          0.13000731	          0.05000134	          0.05272112	          0.08279915	          0.05916356	          0.05000012	          0.05000023	          0.05000758	          0.05000025	          0.05000029	          0.05000040	          0.05000040	          0.05000051	          0.09551489	          0.05000031	          0.05459403	          0.09795887	          0.22107099	          0.34902972	          0.22898447	          0.08037847	          0.05000045	          0.08088926	          0.08608920	          0.05000388	          0.07357856	          0.13658377	          0.05885592	          0.06832558	          0.58184604	          0.21333347	          0.19798842	          0.08279787	          0.25622512	          0.25789732	          0.21606556	          0.05000007	          0.05000015	          0.05000003	          0.05000072	          0.06997073	          0.05000991	          0.56986846	          0.27903410	          0.20484451	          0.37859542	          0.57821287	          0.30514648	          0.05000005	          0.07812136	          0.08279896	
          0.02197114	         -2.90836836	         -1.55294836	          5.56978399	          0.03410208	          0.86148918	         -0.00143578	        -16.54566244	         -1.24762931	          6.93539724	         28.89271824	          3.17574722	         -1.31050284	        -13.88118170	        -14.86534897	         -1.30717069	          6.00336532	         14.13904229	         -0.39147623	        -13.68157386	          0.01240072	         30.51398672	         -0.14967331	         -0.85571831	          0.50679893	         -2.08283525	          4.42824415	        -13.53246581	         16.47818225	        -11.53256101	        -13.45974956	          6.44652652	         38.15285400	         17.14492556	         86.51662706	         86.51662706	          0.36670957	          0.05742815	          0.05000030	          0.20116771	          0.11804576	          0.05628033	          0.05002687	          0.05160341	          0.05384085	          0.05000036	          0.05000156	          0.12239499	          0.34725425	          0.20776613	          0.06252506	          0.15546420	          0.15087017	          0.07000901	          0.05205366	          0.05008253	          0.05907267	          0.05915849	          0.20645316	          0.35368549	          0.05426101	          0.05000202	          0.05000027	          0.13711746	          0.09795943	          0.09795970	          0.09795920	          0.16683028	          0.21503718	          0.14045197	          0.12034505	          0.09761929	          0.14933800	          0.16583379	          0.15780386	          0.17735144	          0.05002507	          0.21215294	          0.10384137	          0.07281260	          0.06998535	          0.05915495	          0.27625721	          0.30222178	          0.05000039	          0.05000151	          0.05000149	          0.36024961	          0.09082244	          0.11469201	          0.11071791	          0.05000050	          0.05000136	          0.08279919	          0.18685880	          0.29501488	          0.19354795	          0.10736602	          0.05000144	          0.06838131	          0.09797452	          0.05000110	          0.06219294	          0.11544692	          0.05000215	          0.05775185	          0.49180092	          0.18031876	          0.27356697	          0.06998427	          0.21657241	          0.21798583	          0.18262782	          0.05543080	          0.05679730	          0.05823200	          0.05000224	          0.05915453	          0.05915481	          0.48167730	          0.33578704	          0.17314344	          0.32000527	          0.62405720	          0.43390618	          0.05000007	          0.09254238	          0.06998520	
          0.03295671	         -2.89323335	         -1.62711532	          5.71694240	          0.05122093	          0.86011607	         -0.00127059	        -16.23753516	         -1.47135696	          6.68771081	         27.86367525	          3.44304777	         -1.02194452	        -16.12947768	        -15.06189620	         -2.26357723	          5.56309589	         14.85849087	         -0.87178340	        -13.44188382	          0.05814796	         29.23735826	         -0.16663335	         -0.63346005	          0.75984863	         -2.13433150	          4.01656175	        -13.57165331	         16.59385862	        -12.48000299	        -13.48488110	          6.46971217	         39.15181420	         16.92873622	         86.51662706	         86.51662706	          0.30995915	          0.05244777	          0.05000153	          0.22725376	          0.09977787	          0.05915522	          0.05005611	          0.05000096	          0.05000111	          0.05000495	          0.05917293	          0.10345362	          0.29351415	          0.17561299	          0.05284946	          0.13140541	          0.12752239	          0.05917609	          0.05000403	          0.05000548	          0.05000261	          0.05000408	          0.17450305	          0.31862002	          0.05000046	          0.05000524	          0.05005813	          0.11589749	          0.08279951	          0.08279973	          0.08279931	          0.14101201	          0.18175859	          0.11871595	          0.11027567	          0.08251263	          0.12622790	          0.17824024	          0.14547729	          0.14992694	          0.10193106	          0.22253213	          0.08777898	          0.10443096	          0.05915459	          0.05000033	          0.38323149	          0.39333097	          0.34436956	          0.24878633	          0.23250832	          0.30449976	          0.07676728	          0.10612462	          0.09358368	          0.06999333	          0.05000254	          0.06998548	          0.15794103	          0.24935946	          0.19107731	          0.14911817	          0.05000069	          0.05780010	          0.08281513	          0.22375773	          0.16259281	          0.13297835	          0.05000029	          0.05000028	          0.41569102	          0.15241331	          0.23123115	          0.05915370	          0.21933290	          0.25352334	          0.19015604	          0.05000008	          0.05000014	          0.05000002	          0.05000002	          0.05000050	          0.05000044	          0.64524180	          0.32643040	          0.16735565	          0.60747729	          0.66829936	          0.36675662	          0.07120895	          0.07822114	          0.05915448	
